<?xml version="1.0" encoding="UTF-8"?>
<svg version="1.1" xmlns="http://www.w3.org/2000/svg" width="320" height="320">
<path d="M0 0 C3.15209961 0.32568359 3.15209961 0.32568359 5.02099609 2.06933594 C5.53734619 2.88354004 6.05369629 3.69774414 6.58569336 4.53662109 C7.17334473 5.45411133 7.76099609 6.37160156 8.36645508 7.31689453 C11.42572681 12.47172976 14.35678279 17.68161964 17.21459961 22.95068359 C18.53610657 25.36305578 19.86300356 27.77243691 21.19116211 30.18115234 C21.52383591 30.78514359 21.8565097 31.38913483 22.19926453 32.01142883 C25.40493605 37.81552196 28.73071992 43.54649454 32.08959961 49.26318359 C37.12285968 57.83689023 42.1011289 66.43995579 47.02709961 75.07568359 C47.36022156 75.65951813 47.69334351 76.24335266 48.03656006 76.84487915 C49.73026889 79.8136473 51.42316111 82.78287989 53.11547852 85.75244141 C56.47862012 91.65370049 59.84588428 97.5526048 63.21459961 103.45068359 C64.19517334 105.16759399 64.19517334 105.16759399 65.19555664 106.91918945 C71.11526508 117.27611942 77.0742147 127.61009239 83.04272461 137.93896484 C83.5806665 138.87546875 84.1186084 139.81197266 84.67285156 140.77685547 C85.58634037 142.35084839 86.51431791 143.91665363 87.46533203 145.46826172 C89.50518515 148.82875193 90.16122351 150.13712293 89.96459961 154.20068359 C89.15209961 157.32568359 89.15209961 157.32568359 88.15209961 158.32568359 C86.64791222 158.41880249 85.13938605 158.44314387 83.63232422 158.43920898 C82.19094337 158.43909569 82.19094337 158.43909569 80.72044373 158.4389801 C79.6756636 158.43381882 78.63088348 158.42865753 77.55444336 158.42333984 C75.95845055 158.42121742 75.95845055 158.42121742 74.33021545 158.41905212 C70.91664878 158.41343423 67.50314661 158.4008787 64.08959961 158.38818359 C61.78165785 158.3831709 59.47371506 158.37860759 57.16577148 158.37451172 C51.49452535 158.36345899 45.82331708 158.34670346 40.15209961 158.32568359 C47.55109279 171.64862951 55.02856272 184.91383218 62.74047852 198.05859375 C68.11768196 207.2339448 73.39297242 216.46582176 78.64770508 225.71166992 C82.01614858 231.62861253 85.43115264 237.49489185 89.04833984 243.26391602 C90.57823596 246.1216848 90.84553377 248.16670573 90.15209961 251.32568359 C89.05108643 252.96203041 89.05108643 252.96203041 87.15209961 254.32568359 C84.07391357 254.70320702 84.07391357 254.70320702 80.20581055 254.70663452 C79.49482586 254.71131449 78.78384117 254.71599447 78.05131149 254.72081625 C75.66284421 254.73280671 73.27494641 254.72329357 70.88647461 254.71386719 C69.17663233 254.7179311 67.46679267 254.72327197 65.75695801 254.72979736 C61.10825691 254.74349824 56.45975509 254.73816092 51.81105042 254.72866011 C46.95174615 254.72107784 42.09245922 254.72810512 37.2331543 254.7328186 C29.07199024 254.73828034 20.91090757 254.73107358 12.74975586 254.71679688 C3.30720371 254.70046956 -6.13515413 254.70575777 -15.57770157 254.72227609 C-23.6771219 254.73587906 -31.77648365 254.73781645 -39.87591171 254.72996008 C-44.71674536 254.72527701 -49.55748761 254.72467609 -54.39831543 254.73456955 C-58.9488385 254.74321965 -63.49911045 254.73725325 -68.04960632 254.71988678 C-69.72217898 254.71591145 -71.39477268 254.7170738 -73.06733704 254.72367477 C-75.34571622 254.73183933 -77.62328422 254.72163134 -79.90161133 254.70663452 C-81.17808533 254.70550344 -82.45455933 254.70437237 -83.76971436 254.70320702 C-86.84790039 254.32568359 -86.84790039 254.32568359 -88.76055908 252.98214149 C-90.47265923 250.37392474 -90.18389932 248.37115116 -89.84790039 245.32568359 C-88.81665039 242.88574219 -88.81665039 242.88574219 -87.34790039 240.47412109 C-86.7989209 239.5553418 -86.24994141 238.6365625 -85.68432617 237.68994141 C-85.07830566 236.70348633 -84.47228516 235.71703125 -83.84790039 234.70068359 C-82.55217846 232.53748962 -81.25796668 230.37339053 -79.96508789 228.20849609 C-79.28671875 227.07959961 -78.60834961 225.95070313 -77.90942383 224.78759766 C-74.8514515 219.67463909 -71.90790585 214.49609758 -68.96325684 209.31729126 C-67.97014416 207.57083658 -66.97523173 205.82541974 -65.97973633 204.08032227 C-64.63025541 201.71465288 -63.28132764 199.34866974 -61.93286133 196.98242188 C-58.67729298 191.27102346 -55.41399516 185.56403951 -52.15155029 179.85656738 C-50.4927728 176.95449951 -48.83441548 174.05219162 -47.17602539 171.14990234 C-44.73331706 166.87516276 -42.29060872 162.60042318 -39.84790039 158.32568359 C-40.44480682 158.33012482 -41.04171326 158.33456604 -41.65670776 158.33914185 C-47.8530641 158.3832894 -54.04937597 158.41351419 -60.24584961 158.43554688 C-62.56032118 158.44562251 -64.87477998 158.45928334 -67.18920898 158.4765625 C-70.51036732 158.50074224 -73.8313578 158.5121509 -77.15258789 158.52099609 C-78.19220673 158.53131866 -79.23182556 158.54164124 -80.302948 158.55227661 C-81.26379303 158.55242767 -82.22463806 158.55257874 -83.21459961 158.55273438 C-84.06287323 158.5571756 -84.91114685 158.56161682 -85.78512573 158.56619263 C-87.84790039 158.32568359 -87.84790039 158.32568359 -89.84790039 156.32568359 C-90.38632914 151.49771565 -89.34755901 148.72944177 -86.91040039 144.59912109 C-86.27094482 143.49938965 -85.63148926 142.3996582 -84.97265625 141.26660156 C-84.26452125 140.07789256 -83.55626597 138.88925521 -82.84790039 137.70068359 C-82.11810047 136.45424913 -81.38968954 135.20700047 -80.66259766 133.95898438 C-79.15042167 131.36581486 -77.63232247 128.77625297 -76.11010742 126.18896484 C-72.60951023 120.22665737 -69.20362132 114.21043614 -65.78540039 108.20068359 C-60.05335741 98.15317317 -54.2796981 88.1299024 -48.4921875 78.11425781 C-44.25966777 70.78513768 -40.05079175 63.44279657 -35.85595703 56.09207153 C-4.11332714 0.47039678 -4.11332714 0.47039678 0 0 Z " fill="#79AB8E" transform="translate(159.847900390625,34.67431640625)"/>
<path d="M0 0 C3.80982538 1.46673665 5.04877743 3.27211422 6.9609375 6.8203125 C7.50741943 7.81796631 8.05390137 8.81562012 8.61694336 9.84350586 C9.19710205 10.92639893 9.77726074 12.00929199 10.375 13.125 C11.63221128 15.42161585 12.89137501 17.71716381 14.15234375 20.01171875 C14.47278152 20.59742142 14.7932193 21.18312408 15.12336731 21.78657532 C18.29066648 27.56532793 21.59897733 33.25650422 24.9375 38.9375 C26.10570999 40.93084823 27.27367651 42.92433915 28.44140625 44.91796875 C29.0255127 45.91489746 29.60961914 46.91182617 30.21142578 47.93896484 C38.62816556 62.34369912 46.91201587 76.82626985 55.1875 91.3125 C55.52453949 91.90246765 55.86157898 92.4924353 56.20883179 93.10028076 C59.55057647 98.95067102 62.88903717 104.80290764 66.21875 110.66015625 C66.71648926 111.53438232 67.21422852 112.4086084 67.72705078 113.30932617 C68.68794223 114.99739174 69.6472955 116.68633395 70.60498047 118.3762207 C73.21906074 122.96683361 75.90342351 127.50361204 78.6640625 132.0078125 C79.2722583 133.00828613 79.8804541 134.00875977 80.50708008 135.03955078 C81.68443872 136.97013238 82.87386102 138.89342389 84.0769043 140.80810547 C84.60453369 141.67580566 85.13216309 142.54350586 85.67578125 143.4375 C86.14927002 144.19933594 86.62275879 144.96117187 87.1105957 145.74609375 C88 148 88 148 87 153 C30.24 153 -26.52 153 -85 153 C-86.12459353 147.37703235 -86.12459353 147.37703235 -83.5625 143.17578125 C-83.00498047 142.2432251 -82.44746094 141.31066895 -81.87304688 140.34985352 C-80.94588867 138.84636353 -80.94588867 138.84636353 -80 137.3125 C-78.69702883 135.14115752 -77.39497612 132.96926369 -76.09375 130.796875 C-75.07667969 129.11368164 -75.07667969 129.11368164 -74.0390625 127.39648438 C-70.79324506 121.98989766 -67.64519008 116.52804776 -64.5 111.0625 C-63.87971924 109.98790527 -63.25943848 108.91331055 -62.62036133 107.80615234 C-57.64298572 99.16596032 -52.77142528 90.46876242 -47.91577148 81.75976562 C-44.31877554 75.32018838 -40.65256576 68.93053799 -36.890625 62.58618164 C-33.11085273 56.20857799 -29.39357564 49.79568125 -25.6875 43.375 C-25.05158936 42.27381836 -24.41567871 41.17263672 -23.76049805 40.03808594 C-20.586292 34.52953847 -17.43449757 29.00976343 -14.32421875 23.46484375 C-13.74260986 22.42859863 -13.16100098 21.39235352 -12.56176758 20.32470703 C-11.47053591 18.37600008 -10.38288806 16.42528006 -9.29956055 14.47216797 C-6.46426638 9.40540514 -3.4754 4.65296227 0 0 Z " fill="#01C250" transform="translate(159,133)"/>
<path d="M0 0 C3.15209961 0.32568359 3.15209961 0.32568359 5.02099609 2.06933594 C5.53734619 2.88354004 6.05369629 3.69774414 6.58569336 4.53662109 C7.17334473 5.45411133 7.76099609 6.37160156 8.36645508 7.31689453 C11.42572681 12.47172976 14.35678279 17.68161964 17.21459961 22.95068359 C18.53610657 25.36305578 19.86300356 27.77243691 21.19116211 30.18115234 C21.52383591 30.78514359 21.8565097 31.38913483 22.19926453 32.01142883 C25.40493605 37.81552196 28.73071992 43.54649454 32.08959961 49.26318359 C37.12285968 57.83689023 42.1011289 66.43995579 47.02709961 75.07568359 C47.36022156 75.65951813 47.69334351 76.24335266 48.03656006 76.84487915 C49.73026889 79.8136473 51.42316111 82.78287989 53.11547852 85.75244141 C56.47862012 91.65370049 59.84588428 97.5526048 63.21459961 103.45068359 C64.19517334 105.16759399 64.19517334 105.16759399 65.19555664 106.91918945 C71.11526508 117.27611942 77.0742147 127.61009239 83.04272461 137.93896484 C83.5806665 138.87546875 84.1186084 139.81197266 84.67285156 140.77685547 C85.58634037 142.35084839 86.51431791 143.91665363 87.46533203 145.46826172 C89.50518515 148.82875193 90.16122351 150.13712293 89.96459961 154.20068359 C89.15209961 157.32568359 89.15209961 157.32568359 88.15209961 158.32568359 C86.64791222 158.41880249 85.13938605 158.44314387 83.63232422 158.43920898 C82.19094337 158.43909569 82.19094337 158.43909569 80.72044373 158.4389801 C79.6756636 158.43381882 78.63088348 158.42865753 77.55444336 158.42333984 C75.95845055 158.42121742 75.95845055 158.42121742 74.33021545 158.41905212 C70.91664878 158.41343423 67.50314661 158.4008787 64.08959961 158.38818359 C61.78165785 158.3831709 59.47371506 158.37860759 57.16577148 158.37451172 C51.49452535 158.36345899 45.82331708 158.34670346 40.15209961 158.32568359 C47.55109279 171.64862951 55.02856272 184.91383218 62.74047852 198.05859375 C68.11768196 207.2339448 73.39297242 216.46582176 78.64770508 225.71166992 C82.01614858 231.62861253 85.43115264 237.49489185 89.04833984 243.26391602 C90.57823596 246.1216848 90.84553377 248.16670573 90.15209961 251.32568359 C89.05108643 252.96203041 89.05108643 252.96203041 87.15209961 254.32568359 C84.07391357 254.70320702 84.07391357 254.70320702 80.20581055 254.70663452 C79.49482586 254.71131449 78.78384117 254.71599447 78.05131149 254.72081625 C75.66284421 254.73280671 73.27494641 254.72329357 70.88647461 254.71386719 C69.17663233 254.7179311 67.46679267 254.72327197 65.75695801 254.72979736 C61.10825691 254.74349824 56.45975509 254.73816092 51.81105042 254.72866011 C46.95174615 254.72107784 42.09245922 254.72810512 37.2331543 254.7328186 C29.07199024 254.73828034 20.91090757 254.73107358 12.74975586 254.71679688 C3.30720371 254.70046956 -6.13515413 254.70575777 -15.57770157 254.72227609 C-23.6771219 254.73587906 -31.77648365 254.73781645 -39.87591171 254.72996008 C-44.71674536 254.72527701 -49.55748761 254.72467609 -54.39831543 254.73456955 C-58.9488385 254.74321965 -63.49911045 254.73725325 -68.04960632 254.71988678 C-69.72217898 254.71591145 -71.39477268 254.7170738 -73.06733704 254.72367477 C-75.34571622 254.73183933 -77.62328422 254.72163134 -79.90161133 254.70663452 C-81.17808533 254.70550344 -82.45455933 254.70437237 -83.76971436 254.70320702 C-86.84790039 254.32568359 -86.84790039 254.32568359 -88.76055908 252.98214149 C-90.47265923 250.37392474 -90.18389932 248.37115116 -89.84790039 245.32568359 C-88.81665039 242.88574219 -88.81665039 242.88574219 -87.34790039 240.47412109 C-86.7989209 239.5553418 -86.24994141 238.6365625 -85.68432617 237.68994141 C-85.07830566 236.70348633 -84.47228516 235.71703125 -83.84790039 234.70068359 C-82.55217846 232.53748962 -81.25796668 230.37339053 -79.96508789 228.20849609 C-79.28671875 227.07959961 -78.60834961 225.95070313 -77.90942383 224.78759766 C-74.8514515 219.67463909 -71.90790585 214.49609758 -68.96325684 209.31729126 C-67.97014416 207.57083658 -66.97523173 205.82541974 -65.97973633 204.08032227 C-64.63025541 201.71465288 -63.28132764 199.34866974 -61.93286133 196.98242188 C-58.67729298 191.27102346 -55.41399516 185.56403951 -52.15155029 179.85656738 C-50.4927728 176.95449951 -48.83441548 174.05219162 -47.17602539 171.14990234 C-44.73331706 166.87516276 -42.29060872 162.60042318 -39.84790039 158.32568359 C-40.44480682 158.33012482 -41.04171326 158.33456604 -41.65670776 158.33914185 C-47.8530641 158.3832894 -54.04937597 158.41351419 -60.24584961 158.43554688 C-62.56032118 158.44562251 -64.87477998 158.45928334 -67.18920898 158.4765625 C-70.51036732 158.50074224 -73.8313578 158.5121509 -77.15258789 158.52099609 C-78.19220673 158.53131866 -79.23182556 158.54164124 -80.302948 158.55227661 C-81.26379303 158.55242767 -82.22463806 158.55257874 -83.21459961 158.55273438 C-84.06287323 158.5571756 -84.91114685 158.56161682 -85.78512573 158.56619263 C-87.84790039 158.32568359 -87.84790039 158.32568359 -89.84790039 156.32568359 C-90.38632914 151.49771565 -89.34755901 148.72944177 -86.91040039 144.59912109 C-86.27094482 143.49938965 -85.63148926 142.3996582 -84.97265625 141.26660156 C-84.26452125 140.07789256 -83.55626597 138.88925521 -82.84790039 137.70068359 C-82.11810047 136.45424913 -81.38968954 135.20700047 -80.66259766 133.95898438 C-79.15042167 131.36581486 -77.63232247 128.77625297 -76.11010742 126.18896484 C-72.60951023 120.22665737 -69.20362132 114.21043614 -65.78540039 108.20068359 C-60.05335741 98.15317317 -54.2796981 88.1299024 -48.4921875 78.11425781 C-44.25966777 70.78513768 -40.05079175 63.44279657 -35.85595703 56.09207153 C-4.11332714 0.47039678 -4.11332714 0.47039678 0 0 Z M-0.84790039 3.32568359 C-6.94865609 9.76626919 -10.89726018 18.63711866 -15.12915039 26.37646484 C-17.87355894 31.39296525 -20.69348738 36.36389791 -23.53540039 41.32568359 C-24.03217285 42.19338379 -24.52894531 43.06108398 -25.04077148 43.95507812 C-32.87286976 57.61743677 -40.7500921 71.25409884 -48.64477539 84.88037109 C-55.49239582 96.70952905 -62.25194542 108.58111103 -68.90600586 120.52026367 C-80.83006862 141.87293395 -80.83006862 141.87293395 -85.67993164 149.02880859 C-87.06714486 151.75683993 -86.71740996 152.50857631 -85.84790039 155.32568359 C-79.03618426 155.70772833 -72.22724082 155.96931088 -65.40722656 156.1496582 C-63.091073 156.22485274 -60.77562613 156.3270523 -58.46191406 156.45727539 C-46.24767372 157.65506871 -46.24767372 157.65506871 -35.01165771 154.03057861 C-31.9362228 150.61481704 -30.27600682 146.64599836 -28.67111206 142.38430786 C-27.37593468 139.14542813 -25.57784568 136.24600287 -23.78540039 133.26318359 C-22.80455457 131.53589873 -21.82370891 129.80861315 -20.84442139 128.08044434 C-19.81743539 126.27203817 -18.78495288 124.46687537 -17.75073242 122.66259766 C-14.80539327 117.52350462 -11.86723785 112.38370507 -9.02758789 107.18505859 C-8.25962745 105.81511625 -7.49142726 104.44530826 -6.72290039 103.07568359 C-6.10157227 101.93615234 -5.48024414 100.79662109 -4.84008789 99.62255859 C-2.84790039 97.32568359 -2.84790039 97.32568359 0.12084961 96.54443359 C3.15209961 97.32568359 3.15209961 97.32568359 5.36303711 100.06005859 C6.10703339 101.38614877 6.82636409 102.72623357 7.52709961 104.07568359 C8.38617424 105.6279332 9.24557374 107.18000304 10.10522461 108.73193359 C10.58024414 109.60849609 11.05526367 110.48505859 11.54467773 111.38818359 C14.36862358 116.5488331 17.30806029 121.64404721 20.23248291 126.74816895 C21.24823459 128.52518541 22.25836713 130.30527365 23.2668457 132.08642578 C24.56709767 134.37525883 25.89511376 136.64854753 27.25073242 138.9050293 C29.15209961 142.32568359 29.15209961 142.32568359 30.5456543 146.04907227 C32.32589137 150.20399621 33.60978962 152.47843014 37.15209961 155.32568359 C45.21485624 157.492964 53.90956669 156.53874116 62.15209961 156.13818359 C64.47615753 156.07293381 66.80039034 156.01362526 69.12475586 155.96044922 C74.80436691 155.81758495 80.47742385 155.60049198 86.15209961 155.32568359 C87.08856708 152.35042902 87.08856708 152.35042902 86.41796875 149.38818359 C86.0118335 148.70755859 85.60569824 148.02693359 85.18725586 147.32568359 C84.72536865 146.53589111 84.26348145 145.74609863 83.78759766 144.93237305 C83.2685083 144.07216553 82.74941895 143.21195801 82.21459961 142.32568359 C81.09674149 140.42373384 79.97959055 138.52136832 78.86303711 136.61865234 C78.26072266 135.60077637 77.6584082 134.58290039 77.0378418 133.53417969 C74.09108744 128.52042441 71.22163948 123.46308062 68.34683228 118.40783691 C59.1943788 102.32747116 49.99523441 86.27057114 40.62866211 70.31396484 C33.73278478 58.56325077 27.01314679 46.73126147 20.43017578 34.8034668 C16.42179578 27.5580989 12.30789519 20.40260419 7.98413086 13.34130859 C5.97607044 10.03592982 4.05855917 6.69052131 2.15209961 3.32568359 C1.16209961 3.32568359 0.17209961 3.32568359 -0.84790039 3.32568359 Z M-0.84790039 98.32568359 C-5.4501046 104.95845493 -9.45900243 111.81831948 -13.34790039 118.88818359 C-18.07196356 127.40004877 -22.86313022 135.86431568 -27.78540039 144.26318359 C-28.35967773 145.24367676 -28.93395508 146.22416992 -29.52563477 147.234375 C-30.70052458 149.24011709 -31.8754926 151.24581338 -33.05053711 153.25146484 C-41.21897397 167.2227983 -49.27856432 181.25315889 -57.16040039 195.38818359 C-61.01539618 202.30044292 -64.88939427 209.19592271 -68.91040039 216.01318359 C-69.29212402 216.66262939 -69.67384766 217.3120752 -70.06713867 217.98120117 C-72.46452478 222.04087425 -74.91489395 226.06494462 -77.38696289 230.07958984 C-77.99145264 231.07321533 -78.59594238 232.06684082 -79.21875 233.09057617 C-80.40786293 235.04451835 -81.60878748 236.99133289 -82.82275391 238.92993164 C-83.36085693 239.81849854 -83.89895996 240.70706543 -84.45336914 241.62255859 C-84.9395874 242.40985352 -85.42580566 243.19714844 -85.92675781 244.00830078 C-87.24332462 246.70786491 -87.24332462 246.70786491 -85.84790039 251.32568359 C-29.08790039 251.32568359 27.67209961 251.32568359 86.15209961 251.32568359 C87.22251421 245.97361061 87.22826008 245.62306992 84.60913086 241.32568359 C84.03630371 240.36758789 83.46347656 239.40949219 82.87329102 238.42236328 C82.24342285 237.40045898 81.61355469 236.37855469 80.96459961 235.32568359 C79.65509345 233.14393931 78.34651468 230.96163815 77.03881836 228.77880859 C76.04954346 227.14202148 76.04954346 227.14202148 75.0402832 225.47216797 C72.38368279 221.04518761 69.82394883 216.56641305 67.27709961 212.07568359 C66.29683615 210.3555145 65.31636143 208.6354658 64.33569336 206.91552734 C63.57361572 205.57723877 63.57361572 205.57723877 62.79614258 204.21191406 C49.08422229 180.13969523 35.33054279 156.09096126 21.30249023 132.20117188 C18.31366731 127.09512404 15.38317437 121.96434079 12.52709961 116.78271484 C11.93944824 115.72141357 11.35179687 114.6601123 10.74633789 113.56665039 C9.62572022 111.53563033 8.51424275 109.49953196 7.41333008 107.45776367 C6.9120459 106.55050537 6.41076172 105.64324707 5.89428711 104.70849609 C5.45971191 103.90814941 5.02513672 103.10780273 4.57739258 102.28320312 C2.97675099 100.08485708 1.65300747 99.31870095 -0.84790039 98.32568359 Z " fill="#F8FCFA" transform="translate(159.847900390625,34.67431640625)"/>
<path d="M0 0 C5.08311195 1.2956952 6.57145472 5.47924775 9.1875 9.8125 C11.4537464 13.71876132 13.63891716 17.66657774 15.8125 21.625 C20.89585807 30.8226433 26.13863201 39.8882939 31.71923828 48.79418945 C32.19216309 49.56206787 32.66508789 50.32994629 33.15234375 51.12109375 C33.5712085 51.78939209 33.99007324 52.45769043 34.42163086 53.14624023 C34.67436768 53.69610596 34.92710449 54.24597168 35.1875 54.8125 C34.6925 55.8025 34.6925 55.8025 34.1875 56.8125 C30.39062822 55.54687607 30.13331004 54.43755361 28.25390625 50.984375 C27.69300293 49.96641846 27.13209961 48.94846191 26.55419922 47.8996582 C25.95881348 46.798396 25.36342773 45.69713379 24.75 44.5625 C23.49428248 42.27951162 22.23775784 39.99696701 20.98046875 37.71484375 C20.34802246 36.56097168 19.71557617 35.40709961 19.06396484 34.21826172 C16.27712894 29.16018719 13.42731233 24.13921097 10.5625 19.125 C10.0785376 18.27196289 9.5945752 17.41892578 9.09594727 16.54003906 C6.60802761 12.18080738 4.03327574 7.94755912 1.1875 3.8125 C-2.44065986 5.02188662 -2.64030687 5.76853111 -4.421875 9.02734375 C-4.92211182 9.9292041 -5.42234863 10.83106445 -5.93774414 11.76025391 C-6.47391357 12.74687012 -7.01008301 13.73348633 -7.5625 14.75 C-8.72152535 16.84047116 -9.88172981 18.93028891 -11.04296875 21.01953125 C-11.65317871 22.12248535 -12.26338867 23.22543945 -12.89208984 24.36181641 C-16.16886916 30.24968811 -19.51770977 36.09527004 -22.875 41.9375 C-23.50567383 43.04472412 -24.13634766 44.15194824 -24.78613281 45.29272461 C-25.38393555 46.33307861 -25.98173828 47.37343262 -26.59765625 48.4453125 C-27.12238525 49.36199707 -27.64711426 50.27868164 -28.18774414 51.22314453 C-29.8955027 53.94478048 -31.67727252 56.41040295 -33.8125 58.8125 C-34.4725 58.8125 -35.1325 58.8125 -35.8125 58.8125 C-34.46794302 55.26815573 -32.90021656 52.00450807 -31.046875 48.69921875 C-30.49298096 47.70946045 -29.93908691 46.71970215 -29.3684082 45.69995117 C-28.7724585 44.64396729 -28.17650879 43.5879834 -27.5625 42.5 C-26.94785889 41.40727783 -26.33321777 40.31455566 -25.69995117 39.1887207 C-21.227455 31.26203765 -16.69879342 23.36869035 -12.125 15.5 C-11.53750977 14.48703857 -10.95001953 13.47407715 -10.34472656 12.43041992 C-9.79397461 11.48787354 -9.24322266 10.54532715 -8.67578125 9.57421875 C-8.19407471 8.74881592 -7.71236816 7.92341309 -7.21606445 7.07299805 C-3.44172982 0.9942775 -3.44172982 0.9942775 0 0 Z " fill="#ECF7F0" transform="translate(159.8125,130.1875)"/>
</svg>
